<?xml version="1.0" encoding="UTF-8" standalone="no"?>
<!-- Created with Inkscape (http://www.inkscape.org/) -->

<svg
   xmlns:dc="http://purl.org/dc/elements/1.1/"
   xmlns:cc="http://creativecommons.org/ns#"
   xmlns:rdf="http://www.w3.org/1999/02/22-rdf-syntax-ns#"
   xmlns:svg="http://www.w3.org/2000/svg"
   xmlns="http://www.w3.org/2000/svg"
   xmlns:sodipodi="http://sodipodi.sourceforge.net/DTD/sodipodi-0.dtd"
   xmlns:inkscape="http://www.inkscape.org/namespaces/inkscape"
   width="148mm"
   height="210mm"
   viewBox="0 0 148 210"
   version="1.1"
   id="svg12083"
   inkscape:version="0.92.0 r15299"
   sodipodi:docname="Proposition 2.2.svg">
  <defs
     id="defs12077" />
  <sodipodi:namedview
     id="base"
     pagecolor="#ffffff"
     bordercolor="#666666"
     borderopacity="1.0"
     inkscape:pageopacity="0.0"
     inkscape:pageshadow="2"
     inkscape:zoom="0.98994949"
     inkscape:cx="418.33941"
     inkscape:cy="301.07849"
     inkscape:document-units="mm"
     inkscape:current-layer="layer1"
     showgrid="false"
     inkscape:window-width="1366"
     inkscape:window-height="705"
     inkscape:window-x="-8"
     inkscape:window-y="-8"
     inkscape:window-maximized="1" />
  <metadata
     id="metadata12080">
    <rdf:RDF>
      <cc:Work
         rdf:about="">
        <dc:format>image/svg+xml</dc:format>
        <dc:type
           rdf:resource="http://purl.org/dc/dcmitype/StillImage" />
        <dc:title></dc:title>
      </cc:Work>
    </rdf:RDF>
  </metadata>
  <g
     inkscape:label="Calque 1"
     inkscape:groupmode="layer"
     id="layer1"
     transform="translate(0,-87)">
    <path
       sodipodi:open="true"
       d="m 81.137144,184.05643 a 31.330732,29.121958 0 0 1 -34.742523,19.28589 31.330732,29.121958 0 0 1 -26.224598,-28.64643 31.330732,29.121958 0 0 1 26.041714,-28.79022 31.330732,29.121958 0 0 1 34.864729,19.0944"
       sodipodi:end="5.9469044"
       sodipodi:start="0.33036168"
       sodipodi:ry="29.121958"
       sodipodi:rx="31.330732"
       sodipodi:cy="174.6097"
       sodipodi:cx="51.500618"
       sodipodi:type="arc"
       id="path14066"
       style="opacity:0.98999999;fill:none;fill-opacity:1;stroke:#000000;stroke-width:2.23316431;stroke-miterlimit:4;stroke-dasharray:none;stroke-opacity:1" />
    <path
       style="opacity:0.98999999;fill:none;fill-opacity:1;stroke:#ecd930;stroke-width:2.23316431;stroke-miterlimit:4;stroke-dasharray:none;stroke-opacity:0.98165134"
       id="path14068"
       sodipodi:type="arc"
       sodipodi:cx="51.500618"
       sodipodi:cy="174.6097"
       sodipodi:rx="31.330732"
       sodipodi:ry="29.121958"
       sodipodi:start="0.33036168"
       sodipodi:end="5.9469044"
       d="m 81.137144,184.05643 a 31.330732,29.121958 0 0 1 -34.742523,19.28589 31.330732,29.121958 0 0 1 -26.224598,-28.64643 31.330732,29.121958 0 0 1 26.041714,-28.79022 31.330732,29.121958 0 0 1 34.864729,19.0944"
       sodipodi:open="true" />
    <path
       style="opacity:0.98999999;fill:none;fill-opacity:1;stroke:#ecd62f;stroke-width:0.90969199;stroke-miterlimit:4;stroke-dasharray:none;stroke-opacity:1"
       id="path14070"
       sodipodi:type="arc"
       sodipodi:cx="52.19783"
       sodipodi:cy="174.29214"
       sodipodi:rx="12.762752"
       sodipodi:ry="11.862992"
       sodipodi:start="0.84409553"
       sodipodi:end="5.4327042"
       d="m 60.677498,183.1582 a 12.762752,11.862992 0 0 1 -17.660281,-0.62519 12.762752,11.862992 0 0 1 -0.05643,-16.42707 12.762752,11.862992 0 0 1 17.655626,-0.72999"
       sodipodi:open="true" />
    <g
       aria-label="Mediacoin"
       transform="matrix(0.22639302,0,0,0.2343843,-39.017216,95.159133)"
       style="font-style:normal;font-weight:normal;font-size:53.33333588px;line-height:2px;font-family:sans-serif;letter-spacing:0px;word-spacing:0px;fill:#000000;fill-opacity:1;stroke:none"
       id="flowRoot14082">
      <path
         d="m 453.32925,319.23015 -17.28,21.01334 h -0.16 -0.16 l -0.85334,-0.85333 -25.06667,-30.82667 0.26667,-0.26667 h 6.61334 q 0.26666,0 0.48,0.21333 0.26666,0.16 0.42666,0.32 l 17.28,21.86667 q 0.10667,0.16 0.42667,0.48 0.32,0.32 0.42667,0.42667 h 0.16 0.16 q 0,-0.0533 0.10666,-0.16 0.10667,-0.10667 0.16,-0.16 l 17.49334,-22.98667 h 6.4 v 53.28 h -5.86667 v -43.2 z"
         style="font-style:normal;font-variant:normal;font-weight:normal;font-stretch:normal;font-family:PROMETHEUS;-inkscape-font-specification:PROMETHEUS;letter-spacing:1.89999998px;fill:#ecd830;fill-opacity:1"
         id="path11989"
         inkscape:connector-curvature="0" />
      <path
         d="m 490.05175,357.20349 v 4.37333 h -24.10667 v -4.37333 z m 0,-19.25333 v 4.37333 h -24.10667 v -4.37333 z m 0,-19.25334 v 4.37334 h -24.10667 v -4.37334 z"
         style="font-style:normal;font-variant:normal;font-weight:normal;font-stretch:normal;font-family:PROMETHEUS;-inkscape-font-specification:PROMETHEUS;letter-spacing:1.89999998px"
         id="path11991"
         inkscape:connector-curvature="0" />
      <path
         d="m 495.47175,357.20349 q 3.73333,0 7.73333,-1.22667 4.05334,-1.22666 7.36,-3.46666 3.36,-2.29334 5.49334,-5.44 2.18666,-3.2 2.18666,-7.09334 0,-2.56 -1.01333,-4.8 -1.01333,-2.24 -2.77333,-4.10666 -1.70667,-1.92 -4,-3.41334 -2.24,-1.49333 -4.8,-2.50666 -2.50667,-1.01334 -5.17334,-1.54667 -2.61333,-0.58667 -5.01333,-0.58667 v -4.21333 q 3.2,0 6.50667,0.64 3.36,0.64 6.45333,1.92 3.09333,1.22667 5.81333,3.09333 2.72,1.81334 4.69334,4.21334 2.02667,2.34666 3.2,5.28 1.17333,2.88 1.17333,6.24 0,3.41333 -1.17333,6.29333 -1.17333,2.88 -3.2,5.28 -1.97334,2.4 -4.69334,4.26667 -2.72,1.81333 -5.81333,3.09333 -3.09333,1.22667 -6.45333,1.86667 -3.30667,0.64 -6.50667,0.64 z"
         style="font-style:normal;font-variant:normal;font-weight:normal;font-stretch:normal;font-family:PROMETHEUS;-inkscape-font-specification:PROMETHEUS;letter-spacing:1.89999998px"
         id="path11993"
         inkscape:connector-curvature="0" />
      <path
         d="m 534.04175,318.96349 v 42.61333 h -4.64 v -42.61333 z"
         style="fill:#000000;fill-opacity:1"
         id="path11995"
         inkscape:connector-curvature="0" />
      <path
         d="m 568.47092,319.01682 27.94667,42.50667 h -5.49333 l -12.53334,-19.04 h -19.94666 l -12.58667,19.04 h -5.44 z m 6.72,18.56 -6.72,-10.45333 -6.82666,10.45333 z"
         style="font-style:normal;font-variant:normal;font-weight:normal;font-stretch:normal;font-family:PROMETHEUS;-inkscape-font-specification:PROMETHEUS;letter-spacing:1.89999998px"
         id="path11997"
         inkscape:connector-curvature="0" />
      <path
         d="m 651.49676,340.13682 q 0,-4.64 1.81333,-8.58666 1.86667,-4 4.96,-6.93334 3.14667,-2.93333 7.25334,-4.58667 4.10666,-1.65333 8.58666,-1.65333 4.53334,0 8.58667,1.65333 4.10667,1.65334 7.2,4.58667 3.14667,2.93334 4.96,6.93334 1.86667,3.94666 1.86667,8.58666 0,4.64 -1.86667,8.58667 -1.81333,3.94667 -4.96,6.88 -3.09333,2.93333 -7.2,4.58667 -4.05333,1.65333 -8.58667,1.65333 -4.48,0 -8.58666,-1.65333 -4.10667,-1.65334 -7.25334,-4.58667 -3.09333,-2.93333 -4.96,-6.88 -1.81333,-3.94667 -1.81333,-8.58667 z m 5.12,-0.16 q 0,3.62667 1.38667,6.82667 1.38666,3.2 3.78666,5.54667 2.4,2.34666 5.54667,3.73333 3.2,1.33333 6.77333,1.33333 3.57334,0 6.77334,-1.33333 3.2,-1.38667 5.6,-3.73333 2.4,-2.34667 3.78666,-5.54667 1.38667,-3.2 1.38667,-6.82667 0,-3.62666 -1.38667,-6.77333 -1.38666,-3.2 -3.78666,-5.54667 -2.4,-2.34666 -5.6,-3.68 -3.2,-1.38666 -6.77334,-1.38666 -3.57333,0 -6.77333,1.38666 -3.14667,1.33334 -5.54667,3.68 -2.4,2.34667 -3.78666,5.54667 -1.38667,3.14667 -1.38667,6.77333 z"
         style="font-style:normal;font-variant:normal;font-weight:normal;font-stretch:normal;font-family:PROMETHEUS;-inkscape-font-specification:PROMETHEUS;letter-spacing:1.89999998px"
         id="path12001"
         inkscape:connector-curvature="0" />
      <path
         d="m 707.26675,318.96349 v 42.61333 h -4.64 v -42.61333 z"
         style="fill:#000000;fill-opacity:1"
         id="path12003"
         inkscape:connector-curvature="0" />
      <path
         d="m 713.64258,318.91015 h 5.97333 l 29.70667,36.48001 v -36.48001 h 4.69334 v 42.72001 h -4.69334 z"
         style="font-style:normal;font-variant:normal;font-weight:normal;font-stretch:normal;font-family:PROMETHEUS;-inkscape-font-specification:PROMETHEUS;letter-spacing:1.89999998px"
         id="path12005"
         inkscape:connector-curvature="0" />
    </g>
    <path
       sodipodi:open="true"
       d="m 60.677498,183.1582 a 12.762752,11.862992 0 0 1 -17.660281,-0.62519 12.762752,11.862992 0 0 1 -0.05643,-16.42707 12.762752,11.862992 0 0 1 17.655626,-0.72999"
       sodipodi:end="5.4327042"
       sodipodi:start="0.84409553"
       sodipodi:ry="11.862992"
       sodipodi:rx="12.762752"
       sodipodi:cy="174.29214"
       sodipodi:cx="52.19783"
       sodipodi:type="arc"
       id="path14084"
       style="opacity:0.98999999;fill:none;fill-opacity:1;stroke:#000000;stroke-width:0.90969199;stroke-miterlimit:4;stroke-dasharray:none;stroke-opacity:1" />
    <path
       style="fill:none;stroke:#000000;stroke-width:0.60602295;stroke-linecap:butt;stroke-linejoin:miter;stroke-miterlimit:4;stroke-dasharray:none;stroke-opacity:1"
       d="m 31.913292,170.15724 c 0,0 1.811304,-12.59213 14.968835,-13.80586"
       id="path14098"
       inkscape:connector-curvature="0"
       sodipodi:nodetypes="cc" />
    <path
       style="opacity:0.98999999;fill:none;fill-opacity:1;stroke:#ecd830;stroke-width:1.112;stroke-miterlimit:4;stroke-dasharray:none;stroke-opacity:1"
       d="m 106.73799,175.96107 c -0.64052,1.46924 -2.39579,3.79739 -5.20868,3.37423 -2.366691,-0.35602 -4.077064,-2.34436 -4.025442,-4.66146 0.0029,-1.99424 1.688338,-3.98102 3.939192,-4.39867 1.99207,-0.36965 4.27065,0.89113 5.20109,2.94826"
       id="path11938"
       inkscape:connector-curvature="0"
       sodipodi:nodetypes="cscsc" />
    <g
       aria-label="Anaïs Kerambrun"
       transform="matrix(0.26458333,0,0,0.26458333,0,103.57071)"
       style="font-style:normal;font-weight:normal;font-size:19.62666702px;line-height:2px;font-family:sans-serif;letter-spacing:0px;word-spacing:0px;fill:#000000;fill-opacity:1;stroke:none"
       id="flowRoot12664">
      <path
         d="m 17.110859,724.48214 q 0.115,-0.0958 0.277917,-0.23 l 0.14375,-0.12459 2.2425,-2.2425 q 0.383333,-0.38333 0.507917,-0.47916 0.124583,-0.10542 0.268333,-0.26834 0.14375,-0.16291 0.37375,-0.38333 0.239583,-0.22042 0.383333,-0.37375 0.392917,-0.35458 0.5175,-0.49833 1.351251,-1.23625 3.565001,-3.42125 l 2.079583,-2.02209 q 0.23,-0.24916 0.4025,-0.39291 0.594167,-0.68042 0.939167,-1.04459 0.105416,-0.0958 0.498333,-0.52708 0.124583,-0.0192 0.239583,-0.0192 0.115,0 0.325834,0.0192 l 0.0096,0.10542 q -0.06708,0.79541 -0.06708,1.14041 -0.06708,0.39292 -0.07667,1.11167 l -0.124583,1.725 q -0.01917,0.20125 -0.0575,1.01583 l -0.345,4.49459 0.0096,0.21083 -0.01917,0.49833 v 0.14375 q -0.02875,0.115 -0.03833,0.16292 l -0.01917,0.82417 0.0096,0.12458 -0.02875,0.38333 q 0.07667,0.13417 0.412083,0.1725 0.852917,0.0863 1.265,0.23959 l 0.0096,0.12458 q 0,0.0767 -0.04792,0.23 -0.345,-0.0575 -0.421667,-0.0671 l -1.17875,-0.0767 -0.852917,0.0192 q -0.83375,0.0958 -1.360833,0.0958 l -0.23,0.0288 -0.277917,-0.01 q -0.421666,0.0383 -0.498333,0.0383 -0.14375,0 -0.345,-0.0383 l 0.01917,-0.26834 q 0.277916,-0.0767 0.6325,-0.10541 0.584583,-0.0383 1.06375,-0.1725 0.124583,-0.0288 0.1725,-0.0288 h 0.04792 q 0.105417,-0.10542 0.134167,-0.19167 0.0575,-0.18208 0.191667,-1.51417 0.14375,-1.33208 0.153333,-2.03166 0.0096,-0.345 0.01917,-0.50792 -0.115,-0.01 -0.555834,-0.01 -0.54625,0 -3.402083,0.0767 l -1.935834,0.0671 q -0.06708,0.01 -0.20125,0.0192 -0.134166,0.0767 -0.335416,0.27792 -0.191667,0.20125 -0.48875,0.42167 -0.412084,0.44083 -1.255417,1.18833 -0.335417,0.30667 -0.575,0.56542 l -0.71875,0.77625 q -0.134167,0.10541 -0.239583,0.22041 -0.07667,0.0671 -0.153334,0.12459 -0.06708,0.10541 -0.134166,0.20125 0.01917,0.10541 0.01917,0.23958 0.25875,0.14375 0.699584,0.18208 0.20125,0.0192 0.43125,0.0479 0.31625,0.0575 0.469583,0.0671 0.115,0.0192 0.20125,0.0575 -0.0096,0.15334 -0.07667,0.32584 l -1.772916,-0.12459 -1.3225,0.0671 q -0.297084,0.01 -0.440834,0.0288 h -0.09583 q -0.07667,0 -0.335417,0.0287 l -0.46,0.01 q -0.115,0 -0.249166,-0.0383 -0.02875,-0.14375 -0.02875,-0.31625 l 0.115,-0.0479 1.054166,-0.0958 0.651667,-0.115 q 0.06708,-0.0287 0.210833,-0.115 z m 7.245001,-4.46584 q 0.210833,0 0.31625,0.01 h 0.23 l 1.197916,-0.0575 1.562084,-0.10542 q 0.210833,-0.0288 0.4025,-0.0383 0.02875,-0.1725 0.04792,-0.52709 0.0575,-0.37375 0.06708,-0.45041 l 0.182083,-2.78875 0.14375,-1.79209 q -0.124583,0.0575 -0.555833,0.44084 -0.20125,0.12458 -0.536667,0.44083 l -2.21375,2.10833 -0.383333,0.36417 q -0.220417,0.23958 -0.440834,0.42167 -0.210833,0.18208 -0.4025,0.38333 -0.09583,0.10542 -0.25875,0.23958 -0.153333,0.12459 -0.2875,0.26834 -0.134166,0.10541 -0.277916,0.26833 -0.143751,0.16292 -0.325834,0.33542 -0.124583,0.12458 -0.383333,0.41208 0.153333,0.0958 0.71875,0.0958 l 0.48875,-0.01 q 0.345,-0.0192 0.709167,-0.0192 z"
         style="font-style:italic;font-variant:normal;font-weight:normal;font-stretch:normal;font-family:Garamond;-inkscape-font-specification:'Garamond Italic'"
         id="path12672" />
      <path
         d="m 34.542943,718.4063 q -0.01917,-0.0767 -0.0575,-0.10541 -0.02875,-0.0287 -0.07667,-0.0287 -0.498333,0 -1.5525,1.57166 -0.105416,0.01 -0.153333,0.01 -0.0575,0 -0.191667,-0.01 0.20125,-0.4025 0.651667,-1.01583 0.46,-0.61333 0.967917,-1.01583 0.5175,-0.41209 0.9775,-0.61334 0.153333,-0.0671 0.277916,-0.0671 0.04792,0 0.14375,0.01 0.1725,0.1725 0.1725,0.35459 0,0.115 -0.02875,0.23 -0.01917,0.115 -0.09583,0.35458 -0.2875,0.82417 -0.421667,1.15958 l -0.54625,1.41834 q -0.191666,0.48875 -0.37375,1.035 0.07667,-0.0958 0.134167,-0.18209 0.89125,-1.30333 1.916667,-2.49166 1.035,-1.19792 1.705833,-1.60042 0.479167,-0.29708 0.910417,-0.29708 0.325833,0 0.507916,0.18208 0.182084,0.1725 0.182084,0.45042 0,0.1725 -0.03833,0.33541 -0.06708,0.36417 -0.297083,1.01584 -0.23,0.65166 -1.2075,2.82708 l -0.958333,2.21375 -0.03833,0.12458 q 0,0.0575 0.06708,0.1725 0.536666,-0.115 1.61,-1.70583 l 0.392916,0.01 q -0.297083,0.53667 -0.9775,1.38 -0.527083,0.64209 -1.130833,0.99667 -0.335417,0.20125 -0.71875,0.20125 -0.23,0 -0.345,-0.0958 -0.115,-0.0958 -0.115,-0.21084 0,-0.50791 0.48875,-1.57166 l 1.389583,-3.03792 0.536667,-1.27458 q 0.182083,-0.42167 0.220417,-0.58459 0.03833,-0.16291 0.03833,-0.32583 0,-0.12458 -0.06708,-0.19167 -0.06708,-0.0767 -0.1725,-0.0767 -0.153334,0 -0.354584,0.12458 -0.709166,0.42167 -1.562083,1.44708 -1.226667,1.47584 -1.629167,2.11792 -1.00625,1.59083 -1.75375,3.24875 -0.115,0.26833 -0.277916,0.39292 -0.20125,0.0287 -0.306667,0.0287 -0.124583,0 -0.383333,-0.0479 -0.03833,-0.0767 -0.03833,-0.12458 0,-0.0767 0.09583,-0.345 0.210833,-0.62292 1.035,-2.62584 l 0.220416,-0.5175 z"
         style="font-style:italic;font-variant:normal;font-weight:normal;font-stretch:normal;font-family:Garamond;-inkscape-font-specification:'Garamond Italic'"
         id="path12674" />
      <path
         d="m 46.742527,718.10922 q 0.09583,-0.16292 0.124583,-0.25875 0.115,-0.2875 0.23,-0.37375 0.268334,-0.0287 0.392917,-0.0287 0.162917,0 0.31625,0.0671 l 0.02875,0.115 q 0,0.0575 -0.04792,0.1725 -0.02875,0.0575 -0.124583,0.36417 l -0.07667,0.19167 -0.6325,1.71541 q -0.4025,1.15959 -0.709167,1.84959 -0.297083,0.69 -0.5175,1.40875 -0.220416,0.70916 -0.4025,1.01583 l -0.03833,0.0958 q 0,0.0575 0.105417,0.15334 0.43125,-0.23959 0.728333,-0.5175 0.766667,-0.71875 0.910417,-0.89125 0.105417,-0.12459 0.20125,-0.23 0.115,0.0958 0.210833,0.20125 -0.268333,0.37375 -0.900833,1.01583 -0.6325,0.64208 -1.140417,0.91042 -0.392917,0.20125 -0.737917,0.20125 -0.220416,0 -0.335416,-0.0958 -0.105417,-0.0958 -0.105417,-0.24916 0,-0.13417 0.09583,-0.49834 0.239584,-0.6325 0.335417,-0.83375 0.09583,-0.20125 0.25875,-0.62291 0.09583,-0.25875 0.392917,-0.90084 -0.182084,0.18209 -0.450417,0.53667 -0.77625,0.9775 -1.7825,1.84958 -0.23,0.20125 -1.111667,0.64209 -0.325833,0.12458 -0.766666,0.16291 -0.37375,-0.01 -0.498334,-0.0767 -0.23,-0.12459 -0.37375,-0.39292 -0.105416,-0.20125 -0.105416,-0.62292 0,-0.61333 0.268333,-1.36083 0.46,-1.27458 0.929583,-1.88792 0.805,-1.06375 1.590834,-1.68666 0.795416,-0.62292 1.456666,-0.91042 0.872084,-0.38333 1.514167,-0.38333 0.210833,0 0.4025,0.0383 0.191667,0.0383 0.364167,0.115 z m -4.561667,6.28667 q 0.23,-0.0575 0.4025,-0.16292 0.105417,-0.0575 0.7475,-0.52708 1.169167,-1.17875 1.3225,-1.35125 0.335417,-0.37375 0.757083,-1.02542 0.115,-0.16292 0.48875,-0.90083 l 0.249167,-0.66125 q 0.134167,-0.58459 0.134167,-0.67084 0,-0.26833 -0.220417,-0.50791 -0.14375,-0.14375 -0.469583,-0.14375 -0.37375,0 -0.642084,0.12458 -0.60375,0.2875 -1.102083,0.72833 -0.670833,0.60375 -1.29375,1.5525 -0.622917,0.93917 -0.881667,1.57167 -0.354583,0.87208 -0.354583,1.30333 0,0.35459 0.14375,0.52709 0.14375,0.1725 0.364167,0.1725 0.07667,0 0.354583,-0.0287 z"
         style="font-style:italic;font-variant:normal;font-weight:normal;font-stretch:normal;font-family:Garamond;-inkscape-font-specification:'Garamond Italic'"
         id="path12676" />
      <path
         d="m 51.131693,717.95589 q -0.7475,0.20125 -1.715416,1.265 l -0.5175,0.0958 q 0.584583,-0.8625 1.533333,-1.46625 0.94875,-0.61333 1.542917,-0.61333 0.1725,0 0.277916,0.115 0.115,0.10541 0.115,0.27791 0,0.10542 -0.02875,0.21084 -0.01917,0.10541 -0.25875,0.76666 -0.14375,0.37375 -1.159583,2.38625 l -1.389583,2.54917 q -0.1725,0.33542 -0.220417,0.47917 -0.03833,0.14375 -0.03833,0.35458 0.0575,0.0671 0.124583,0.0671 0.31625,0 0.680417,-0.33541 0.94875,-0.85292 1.274583,-1.41834 0.1725,0 0.37375,0.0287 -0.268333,0.49834 -0.824167,1.15959 -0.54625,0.66125 -1.140416,1.00625 -0.584584,0.345 -0.996667,0.345 -0.25875,0 -0.421667,-0.14375 -0.153333,-0.13417 -0.153333,-0.29709 0,-0.805 1.0925,-2.78875 1.312917,-2.3575 1.629167,-3.00916 0.14375,-0.30667 0.220416,-0.44084 0.134167,-0.22041 0.134167,-0.31625 0,-0.0862 -0.134167,-0.27791 z m -1.025416,-3.42125 q 0,-0.30667 0.220416,-0.53667 0.23,-0.23 0.555834,-0.23 0.325833,0 0.54625,0.23 0.23,0.22042 0.23,0.54625 0,0.32583 -0.23,0.55583 -0.23,0.23 -0.54625,0.23 -0.31625,0 -0.54625,-0.23 -0.23,-0.23 -0.23,-0.56541 z m 3.977083,-0.75709 q 0.325834,0 0.555834,0.23 0.23,0.23 0.23,0.54625 0,0.32584 -0.23,0.55584 -0.23,0.23 -0.555834,0.23 -0.325833,0 -0.555833,-0.23 -0.220417,-0.23 -0.220417,-0.575 0,-0.30667 0.220417,-0.52709 0.23,-0.23 0.555833,-0.23 z"
         style="font-style:italic;font-variant:normal;font-weight:normal;font-stretch:normal;font-family:Garamond;-inkscape-font-specification:'Garamond Italic'"
         id="path12678" />
      <path
         d="m 53.029192,723.4088 q 0.479167,0 0.785833,0.73792 0.153334,0.36417 0.297084,0.47917 0.134166,0.12458 0.354583,0.12458 0.412083,0 0.785833,-0.38333 0.2875,-0.2875 0.2875,-0.88167 0,-0.46 -0.325833,-1.38 -0.46,-1.33208 -0.46,-2.08917 0,-1.10208 0.594167,-1.955 0.594167,-0.85291 1.878333,-0.85291 0.54625,0 0.872084,0.29708 0.325833,0.29708 0.325833,0.71875 0,0.2875 -0.162917,0.46958 -0.153333,0.1725 -0.354583,0.1725 -0.421667,0 -0.757083,-0.4025 -0.335417,-0.41208 -0.450417,-0.47916 -0.115,-0.0575 -0.354583,-0.0575 -0.268334,0 -0.479167,0.23 -0.20125,0.23 -0.20125,0.55583 0,0.77625 0.46,2.16583 0.46,1.38 0.46,2.14667 0,0.48875 -0.306667,0.99667 -0.297083,0.49833 -0.939167,0.85291 -0.6325,0.345 -1.303333,0.345 -0.805,0 -1.2075,-0.345 -0.392917,-0.345 -0.392917,-0.82416 0,-0.2875 0.162917,-0.46 0.162917,-0.18209 0.43125,-0.18209 z"
         style="font-style:italic;font-variant:normal;font-weight:normal;font-stretch:normal;font-family:Garamond;-inkscape-font-specification:'Garamond Italic'"
         id="path12680" />
      <path
         d="m 65.650445,719.30714 q 0.115,-0.46959 0.392916,-1.86875 l 0.04792,-0.16292 0.728333,-3.40208 0.0575,-0.42167 q 0,-0.0958 -0.07667,-0.25875 -0.2875,-0.1725 -0.709167,-0.20125 -0.20125,-0.01 -0.345,-0.0383 -0.37375,-0.0479 -0.440833,-0.0575 -0.239584,0 -0.354584,-0.10542 0.03833,-0.14375 0.03833,-0.23958 l 0.737916,-0.0192 1.772917,0.10542 1.111667,-0.0383 0.31625,0.01 q 0.124583,0 0.354583,-0.0287 0.239583,-0.0383 0.306667,-0.0383 0.134166,0 0.4025,0.0671 -0.02875,0.23 -0.182084,0.39291 l -0.31625,0.0287 q -0.191666,0.0288 -0.479166,0.0383 -0.277917,0.01 -0.421667,0.0958 -0.04792,0.0287 -0.09583,0.0958 -0.134167,0.21084 -0.364167,1.10209 l -0.37375,1.52375 q -0.450417,1.65791 -0.6325,2.67375 -0.0575,0.345 -0.105417,0.52708 l 1.58125,-1.3225 q 0.182084,-0.16292 0.364167,-0.345 0.421667,-0.31625 0.795417,-0.68042 0.92,-0.90083 1.3225,-1.23625 l 1.495,-1.39916 q 0.440833,-0.4025 0.622916,-0.69 -0.124583,-0.0671 -0.191666,-0.0958 -0.14375,-0.0767 -0.239584,-0.12458 -0.297083,-0.16292 -0.757083,-0.20125 -0.1725,-0.0192 -0.354583,-0.0575 v -0.0862 q 0,-0.0767 0.01917,-0.23958 0.220417,-0.0671 0.325834,-0.0671 0.325833,0 0.795416,0.0958 0.479167,0.0862 1.274584,0.0862 0.766666,0 1.255416,-0.0479 0.20125,-0.0192 0.268334,-0.0192 0.07667,0 0.23,0.0192 l 0.0096,0.30667 q -0.881667,0.25875 -1.197917,0.39291 -0.07667,0.0383 -1.035,0.60375 -1.58125,1.34167 -3.287083,2.84625 l -1.504583,1.3225 -0.105417,0.115 q 0.07667,0.15334 0.14375,0.24917 l 1.0925,1.42792 1.130833,1.5525 q 0.07667,0.12458 0.440834,0.66125 0.191666,0.345 0.469583,0.66125 0.09583,0.115 0.2875,0.39291 0.297083,0.44084 0.709167,0.92959 0.153333,0.18208 0.412083,0.29708 0.354583,0.1725 1.197917,0.33542 -0.01917,0.23 -0.06708,0.41208 h -0.507916 q -0.9775,-0.14375 -2.1275,-0.15333 -0.872084,-1.23625 -1.303334,-1.93584 l -0.153333,-0.18208 -0.43125,-0.6325 -1.073333,-1.5525 q -0.46,-0.73792 -1.044584,-1.39917 -0.115,-0.13416 -0.210833,-0.26833 -0.182083,0.14375 -0.364167,0.24917 -0.1725,0.10541 -0.412083,0.27791 l -0.785833,3.6225 q -0.124584,0.60375 -0.124584,0.98709 0,0.0479 0.01917,0.18208 0.268333,0.22042 0.575,0.31625 0.306667,0.0671 0.60375,0.0958 0.297083,0.0287 0.5175,0.0767 0.105417,0.0671 0.105417,0.15333 0,0.0479 -0.0096,0.10542 -0.210833,0.0767 -0.507916,0.0767 -0.69,0 -1.140417,-0.0575 l -0.555833,0.0192 -0.37375,-0.0192 -1.035,0.0192 q -0.09583,0.01 -0.277917,0.0479 l -1.082917,0.01 v -0.33541 q 0.09583,-0.0479 0.4025,-0.10542 0.814584,-0.12458 1.111667,-0.39292 0.297083,-0.27791 0.412083,-0.90083 0.02875,-0.14375 0.162917,-0.53667 l 0.46,-2.1275 0.239583,-1.22666 q 0.01917,-0.10542 0.03833,-0.2875 z"
         style="font-style:italic;font-variant:normal;font-weight:normal;font-stretch:normal;font-family:Garamond;-inkscape-font-specification:'Garamond Italic'"
         id="path12682" />
      <path
         d="m 76.517943,721.58797 q -0.31625,0.87208 -0.31625,1.76333 0,0.65167 0.306667,1.04459 0.20125,0.26833 0.54625,0.26833 0.210833,0 0.37375,-0.0862 0.354583,-0.18208 0.60375,-0.43125 0.25875,-0.24917 0.536666,-0.65167 0.277917,-0.4025 0.450417,-0.90083 h 0.134167 q 0.115,0 0.25875,0.0192 -0.2875,1.07333 -1.418334,2.10833 -0.709166,0.64208 -1.46625,0.64208 -0.507916,0 -0.8625,-0.46 -0.469583,-0.60375 -0.469583,-1.6675 0,-0.46 0.134167,-1.10208 0.14375,-0.64208 0.325833,-1.07333 0.2875,-0.67084 0.642083,-1.265 l 0.737917,-1.07334 q 0.71875,-0.76666 0.805,-0.84333 0.335417,-0.2875 0.670833,-0.43125 0.345,-0.15333 0.709167,-0.15333 0.469583,0 0.824167,0.39291 0.354583,0.39292 0.354583,0.98709 0,0.52708 -0.277917,1.04458 -0.268333,0.50792 -0.584583,0.7475 l -0.795417,0.5175 q -0.134166,0.0671 -0.71875,0.24917 -0.584583,0.1725 -1.504583,0.35458 z m 0.162917,-0.47917 q 0.306666,0.01 0.958333,-0.23958 0.354583,-0.13417 0.939167,-0.52708 0.23,-0.15334 0.527083,-0.5175 0.297083,-0.37375 0.450417,-0.76667 0.153333,-0.4025 0.153333,-0.82417 0,-0.27791 -0.162917,-0.46 -0.162916,-0.18208 -0.364166,-0.18208 -0.25875,0 -0.613334,0.29708 -0.594166,0.5175 -1.245833,1.73459 -0.48875,0.92958 -0.642083,1.48541 z"
         style="font-style:italic;font-variant:normal;font-weight:normal;font-stretch:normal;font-family:Garamond;-inkscape-font-specification:'Garamond Italic'"
         id="path12684" />
      <path
         d="m 83.053776,718.0038 q -0.31625,0.23 -0.594167,0.53667 -0.07667,0.0862 -0.872083,1.15 l -0.392917,0.0192 q 0.239583,-0.5175 0.89125,-1.27459 0.651667,-0.75708 1.130833,-1.035 0.306667,-0.18208 0.69,-0.21083 0.239584,0.0671 0.325834,0.18208 0.09583,0.115 0.09583,0.27792 0,0.16292 -0.03833,0.32583 -0.105417,0.52709 -0.421667,1.50459 -0.31625,0.9775 -0.565417,1.54291 l -0.498333,1.17875 -0.03833,0.1725 q 0.134166,-0.23 0.54625,-1.02541 1.562083,-2.96125 2.252083,-3.66084 0.507917,-0.49833 1.188333,-0.49833 0.383334,0 0.71875,0.30667 0.249167,0.23958 0.249167,0.6325 0,0.44083 -0.277917,0.75708 -0.191666,0.22042 -0.54625,0.22042 -0.297083,0 -0.421666,-0.13417 -0.115,-0.14375 -0.14375,-0.69958 -0.124584,-0.24917 -0.277917,-0.24917 -0.153333,0 -0.325833,0.16292 -0.46,0.41208 -1.734584,2.645 -1.274583,2.22333 -1.600416,3.09541 -0.31625,0.8625 -0.5175,1.18834 -0.105417,0.16291 -0.392917,0.16291 -0.25875,0 -0.37375,-0.0958 -0.105417,-0.0863 -0.105417,-0.23 0,-0.19167 0.09583,-0.44083 0.412083,-1.00625 1.3225,-3.70875 l 0.670833,-2.05084 q 0.06708,-0.27791 0.09583,-0.35458 l 0.0575,-0.14375 q 0,-0.0958 -0.191666,-0.24917 z"
         style="font-style:italic;font-variant:normal;font-weight:normal;font-stretch:normal;font-family:Garamond;-inkscape-font-specification:'Garamond Italic'"
         id="path12686" />
      <path
         d="m 93.125862,718.10922 q 0.09583,-0.16292 0.124583,-0.25875 0.115,-0.2875 0.23,-0.37375 0.268334,-0.0287 0.392917,-0.0287 0.162917,0 0.31625,0.0671 l 0.02875,0.115 q 0,0.0575 -0.04792,0.1725 -0.02875,0.0575 -0.124583,0.36417 l -0.07667,0.19167 -0.6325,1.71541 q -0.4025,1.15959 -0.709166,1.84959 -0.297084,0.69 -0.5175,1.40875 -0.220417,0.70916 -0.4025,1.01583 l -0.03833,0.0958 q 0,0.0575 0.105417,0.15334 0.43125,-0.23959 0.728333,-0.5175 0.766667,-0.71875 0.910417,-0.89125 0.105417,-0.12459 0.20125,-0.23 0.115,0.0958 0.210833,0.20125 -0.268333,0.37375 -0.900833,1.01583 -0.6325,0.64208 -1.140417,0.91042 -0.392916,0.20125 -0.737916,0.20125 -0.220417,0 -0.335417,-0.0958 -0.105417,-0.0958 -0.105417,-0.24916 0,-0.13417 0.09583,-0.49834 0.239583,-0.6325 0.335416,-0.83375 0.09583,-0.20125 0.25875,-0.62291 0.09583,-0.25875 0.392917,-0.90084 -0.182083,0.18209 -0.450417,0.53667 -0.77625,0.9775 -1.7825,1.84958 -0.23,0.20125 -1.111666,0.64209 -0.325834,0.12458 -0.766667,0.16291 -0.37375,-0.01 -0.498333,-0.0767 -0.23,-0.12459 -0.373751,-0.39292 -0.105416,-0.20125 -0.105416,-0.62292 0,-0.61333 0.268333,-1.36083 0.46,-1.27458 0.929584,-1.88792 0.805,-1.06375 1.590833,-1.68666 0.795417,-0.62292 1.456667,-0.91042 0.872083,-0.38333 1.514166,-0.38333 0.210834,0 0.4025,0.0383 0.191667,0.0383 0.364167,0.115 z m -4.561667,6.28667 q 0.23,-0.0575 0.4025,-0.16292 0.105417,-0.0575 0.7475,-0.52708 1.169167,-1.17875 1.3225,-1.35125 0.335417,-0.37375 0.757084,-1.02542 0.115,-0.16292 0.48875,-0.90083 l 0.249166,-0.66125 q 0.134167,-0.58459 0.134167,-0.67084 0,-0.26833 -0.220417,-0.50791 -0.14375,-0.14375 -0.469583,-0.14375 -0.37375,0 -0.642083,0.12458 -0.60375,0.2875 -1.102084,0.72833 -0.670833,0.60375 -1.29375,1.5525 -0.622916,0.93917 -0.881666,1.57167 -0.354584,0.87208 -0.354584,1.30333 0,0.35459 0.14375,0.52709 0.14375,0.1725 0.364167,0.1725 0.07667,0 0.354583,-0.0287 z"
         style="font-style:italic;font-variant:normal;font-weight:normal;font-stretch:normal;font-family:Garamond;-inkscape-font-specification:'Garamond Italic'"
         id="path12688" />
      <path
         d="m 97.764197,718.16672 -0.134167,-0.0383 q -0.1725,0 -0.536666,0.27791 -0.66125,0.49834 -1.140417,1.11167 -0.09583,0.12458 -0.191667,0.23 -0.182083,-0.0192 -0.364166,-0.0479 0.297083,-0.48875 0.594166,-0.79541 0.69,-0.70917 0.958334,-0.91042 0.536666,-0.41208 1.00625,-0.61333 0.239583,-0.10542 0.479166,-0.10542 0.210834,0 0.345001,0.12458 0.14375,0.12459 0.14375,0.26834 0,0.33541 -1.121251,2.53 -0.31625,0.6325 -0.412083,0.8625 0.527083,-0.55584 1.35125,-1.52375 0.584584,-0.69 1.571663,-1.57167 0.38334,-0.33542 0.87209,-0.5175 0.48875,-0.18208 0.805,-0.18208 0.25875,0 0.45041,0.1725 0.12459,0.115 0.12459,0.33541 0,0.82417 -1.10209,2.86542 l -0.44083,0.84333 -0.0575,0.15334 0.9775,-1.15959 q 0.45042,-0.49833 0.61333,-0.67083 0.30667,-0.29708 0.44084,-0.46 0.81458,-0.9775 1.67708,-1.50458 0.87208,-0.52709 1.37042,-0.52709 0.21083,0 0.37375,0.1725 0.16291,0.16292 0.16291,0.45042 0,0.19167 -0.0383,0.36417 -0.0767,0.31625 -0.30667,0.85291 -0.0192,0.0479 -0.83375,1.53334 -0.46958,0.85291 -0.71875,1.265 l -0.47916,0.75708 q -0.35459,0.61333 -0.53667,0.79542 -0.55583,0.55583 -0.55583,0.90083 0,0.0479 0.0671,0.0958 0.0479,0 0.35458,-0.19166 0.62292,-0.38334 1.53334,-1.21709 l 0.29708,0.0767 q -0.46,0.77625 -1.50458,1.46625 -1.035,0.68042 -1.86875,0.68042 -0.20125,0 -0.345,-0.15334 0,-0.12458 0.0383,-0.20125 0.0383,-0.0863 0.30667,-0.52708 l 1.59083,-2.57792 q 1.28417,-2.07958 1.53333,-2.645 0.36417,-0.83375 0.36417,-0.9775 0,-0.10541 -0.0671,-0.1725 -0.0671,-0.0767 -0.16292,-0.0767 -0.13417,0 -0.345,0.115 -0.55583,0.30666 -1.29375,1.08291 -1.45667,1.5525 -2.22333,2.46292 -1.21709,1.46625 -2.079586,3.03792 -0.20125,0.37375 -0.450417,0.60375 -0.210833,0.0287 -0.412083,0.0287 -0.306667,0 -0.507917,-0.0575 0.02875,-0.1725 0.268333,-0.56542 0.460001,-0.73792 1.475834,-2.59708 1.015836,-1.85917 1.332086,-2.52042 0.31625,-0.67083 0.4025,-0.98708 0.0287,-0.10542 0.0287,-0.22042 0,-0.16292 -0.0958,-0.27792 -0.0575,-0.0863 -0.14375,-0.0863 -0.15333,0 -0.45041,0.1725 -0.44084,0.23 -1.236253,1.08292 -1.38,1.46625 -1.5525,1.68667 -1.17875,1.51416 -1.75375,2.44375 -0.02875,0.0575 -0.37375,0.64208 -0.335417,0.575 -0.450417,0.79542 -0.14375,0.23 -0.37375,0.43125 -0.249166,0.0288 -0.421666,0.0288 -0.124584,0 -0.249167,-0.0383 l -0.03833,-0.14375 q 0,-0.14375 0.14375,-0.38333 0.0575,-0.0958 1.571666,-3.00917 l 1.705834,-3.34458 q 0.02875,-0.0671 0.03833,-0.20125 z"
         style="font-style:italic;font-variant:normal;font-weight:normal;font-stretch:normal;font-family:Garamond;-inkscape-font-specification:'Garamond Italic'"
         id="path12690" />
      <path
         d="m 110.51003,712.95339 q -0.25875,-0.1725 -0.75709,-0.1725 h -0.15333 l 0.0192,-0.26834 q 0.26833,-0.0671 1.05416,-0.0863 0.16292,0 1.21709,-0.0671 -0.0288,0.14375 -0.58459,1.84958 l -0.70916,2.25209 q -0.0958,0.36416 -0.47917,1.52375 l -1.04458,3.41166 1.38958,-1.83041 q 1.21708,-1.41834 1.42792,-1.61 0.5175,-0.46 0.92,-0.62292 0.4025,-0.1725 0.70916,-0.1725 0.35459,0 0.64209,0.33542 0.36416,0.44083 0.36416,1.035 0,1.24583 -0.65166,2.59708 -0.64209,1.34167 -1.7825,2.45333 -0.73792,0.71875 -2.16584,1.38 -0.81458,0.37375 -1.31291,0.37375 -0.56542,0 -0.89125,-0.29708 -0.31625,-0.29708 -0.31625,-0.70917 0,-0.52708 0.20125,-1.22666 l 0.49833,-1.7825 1.84,-5.66375 q 0.32583,-1.07334 0.61333,-1.84 0.115,-0.30667 0.115,-0.52709 0,-0.14375 -0.16291,-0.33541 z m -1.50459,11.97916 q 0.30667,0 0.64209,-0.20125 0.66125,-0.37375 1.48541,-1.33208 0.83375,-0.95833 1.14042,-1.45667 0.6325,-1.04458 1.035,-2.07958 0.30667,-0.76667 0.30667,-1.34167 0,-0.26833 -0.18209,-0.43125 -0.1725,-0.1725 -0.45041,-0.1725 -0.26834,0 -0.58459,0.18209 -0.61333,0.36416 -1.44708,1.36083 -1.3225,1.57167 -1.71542,2.21375 -0.38333,0.64208 -0.6325,1.47583 -0.24916,0.82417 -0.24916,1.10209 0,0.2875 0.18208,0.48875 0.18208,0.19166 0.46958,0.19166 z"
         style="font-style:italic;font-variant:normal;font-weight:normal;font-stretch:normal;font-family:Garamond;-inkscape-font-specification:'Garamond Italic'"
         id="path12692" />
      <path
         d="m 117.20878,718.0038 q -0.31625,0.23 -0.59417,0.53667 -0.0767,0.0862 -0.87208,1.15 l -0.39292,0.0192 q 0.23958,-0.5175 0.89125,-1.27459 0.65167,-0.75708 1.13084,-1.035 0.30666,-0.18208 0.69,-0.21083 0.23958,0.0671 0.32583,0.18208 0.0958,0.115 0.0958,0.27792 0,0.16292 -0.0383,0.32583 -0.10542,0.52709 -0.42167,1.50459 -0.31625,0.9775 -0.56541,1.54291 l -0.49834,1.17875 -0.0383,0.1725 q 0.13417,-0.23 0.54625,-1.02541 1.56208,-2.96125 2.25208,-3.66084 0.50792,-0.49833 1.18834,-0.49833 0.38333,0 0.71875,0.30667 0.24916,0.23958 0.24916,0.6325 0,0.44083 -0.27791,0.75708 -0.19167,0.22042 -0.54625,0.22042 -0.29709,0 -0.42167,-0.13417 -0.115,-0.14375 -0.14375,-0.69958 -0.12458,-0.24917 -0.27792,-0.24917 -0.15333,0 -0.32583,0.16292 -0.46,0.41208 -1.73458,2.645 -1.27459,2.22333 -1.60042,3.09541 -0.31625,0.8625 -0.5175,1.18834 -0.10542,0.16291 -0.39292,0.16291 -0.25875,0 -0.37375,-0.0958 -0.10542,-0.0863 -0.10542,-0.23 0,-0.19167 0.0958,-0.44083 0.41208,-1.00625 1.3225,-3.70875 l 0.67083,-2.05084 q 0.0671,-0.27791 0.0958,-0.35458 l 0.0575,-0.14375 q 0,-0.0958 -0.19167,-0.24917 z"
         style="font-style:italic;font-variant:normal;font-weight:normal;font-stretch:normal;font-family:Garamond;-inkscape-font-specification:'Garamond Italic'"
         id="path12694" />
      <path
         d="m 124.02252,718.03255 q -0.31625,0.13417 -0.89125,0.73792 -0.37375,0.31625 -0.69958,0.66125 -0.22042,0.24917 -0.32583,0.345 l -0.30667,-0.0671 q 0.15333,-0.2875 0.89125,-1.07334 0.73792,-0.79541 1.50458,-1.23625 0.37375,-0.22041 0.68042,-0.22041 0.18208,0 0.31625,0.13416 0.13417,0.13417 0.13417,0.2875 0,0.20125 -0.16292,0.54625 -0.0288,0.0575 -0.14375,0.32584 -0.43125,1.00625 -1.6675,3.42125 -1.07333,2.07 -1.07333,2.34791 l 0.01,0.0575 q 0.24917,-0.0383 0.67083,-0.4025 1.25542,-1.06375 1.8975,-1.7825 0.0863,-0.0862 0.44084,-0.46 1.0925,-1.13083 1.81125,-2.17541 0.43125,-0.62292 1.22666,-2.26167 0.26834,-0.0288 0.45042,-0.0288 0.22042,0 0.33542,0.15333 -0.20125,0.60375 -0.75709,1.97417 l -1.7825,4.44667 q -0.16291,0.345 -0.21083,0.6325 l 0.0671,0.01 q 0.0671,0 0.31625,-0.22042 0.55584,-0.49833 0.92959,-1.01583 0.1725,-0.23958 0.29708,-0.37375 l 0.30667,0.0479 q -0.46,0.87208 -1.5525,1.8975 -0.60375,0.55583 -0.94875,0.55583 -0.12459,0 -0.32584,-0.0575 -0.1725,-0.18208 -0.1725,-0.345 0,-0.47917 0.39292,-1.39917 l 1.35125,-3.15291 q 0.0575,-0.0958 0.0767,-0.19167 -0.1725,0.19167 -0.75709,0.8625 -1.38,1.61 -2.37666,2.53 -0.98709,0.92 -2.1275,1.58125 -0.27792,0.15333 -0.54625,0.15333 -0.13417,0 -0.23,-0.0958 -0.0862,-0.0958 -0.0862,-0.26833 0,-0.15334 0.0671,-0.38334 0.15333,-0.48875 0.54625,-1.24583 l 1.63875,-3.22958 0.67083,-1.42792 q 0.18209,-0.2875 0.18209,-0.42167 0,-0.0479 -0.0671,-0.1725 z"
         style="font-style:italic;font-variant:normal;font-weight:normal;font-stretch:normal;font-family:Garamond;-inkscape-font-specification:'Garamond Italic'"
         id="path12696" />
      <path
         d="m 132.10128,718.4063 q -0.0192,-0.0767 -0.0575,-0.10541 -0.0288,-0.0287 -0.0767,-0.0287 -0.49833,0 -1.5525,1.57166 -0.10542,0.01 -0.15333,0.01 -0.0575,0 -0.19167,-0.01 0.20125,-0.4025 0.65167,-1.01583 0.46,-0.61333 0.96791,-1.01583 0.5175,-0.41209 0.9775,-0.61334 0.15334,-0.0671 0.27792,-0.0671 0.0479,0 0.14375,0.01 0.1725,0.1725 0.1725,0.35459 0,0.115 -0.0288,0.23 -0.0192,0.115 -0.0958,0.35458 -0.2875,0.82417 -0.42167,1.15958 l -0.54625,1.41834 q -0.19167,0.48875 -0.37375,1.035 0.0767,-0.0958 0.13417,-0.18209 0.89125,-1.30333 1.91666,-2.49166 1.035,-1.19792 1.70584,-1.60042 0.47916,-0.29708 0.91041,-0.29708 0.32584,0 0.50792,0.18208 0.18208,0.1725 0.18208,0.45042 0,0.1725 -0.0383,0.33541 -0.0671,0.36417 -0.29708,1.01584 -0.23,0.65166 -1.2075,2.82708 l -0.95834,2.21375 -0.0383,0.12458 q 0,0.0575 0.0671,0.1725 0.53667,-0.115 1.61,-1.70583 l 0.39292,0.01 q -0.29708,0.53667 -0.9775,1.38 -0.52708,0.64209 -1.13083,0.99667 -0.33542,0.20125 -0.71875,0.20125 -0.23,0 -0.345,-0.0958 -0.115,-0.0958 -0.115,-0.21084 0,-0.50791 0.48875,-1.57166 l 1.38958,-3.03792 0.53667,-1.27458 q 0.18208,-0.42167 0.22041,-0.58459 0.0383,-0.16291 0.0383,-0.32583 0,-0.12458 -0.0671,-0.19167 -0.0671,-0.0767 -0.1725,-0.0767 -0.15333,0 -0.35458,0.12458 -0.70917,0.42167 -1.56208,1.44708 -1.22667,1.47584 -1.62917,2.11792 -1.00625,1.59083 -1.75375,3.24875 -0.115,0.26833 -0.27792,0.39292 -0.20125,0.0287 -0.30666,0.0287 -0.12459,0 -0.38334,-0.0479 -0.0383,-0.0767 -0.0383,-0.12458 0,-0.0767 0.0958,-0.345 0.21084,-0.62292 1.035,-2.62584 l 0.22042,-0.5175 z"
         style="font-style:italic;font-variant:normal;font-weight:normal;font-stretch:normal;font-family:Garamond;-inkscape-font-specification:'Garamond Italic'"
         id="path12698" />
    </g>
  </g>
</svg>
